<?xml version="1.0" encoding="UTF-8"?>
<svg id="Layer_1" data-name="Layer 1" xmlns="http://www.w3.org/2000/svg" viewBox="0 0 703.86 308.28">
  <defs>
    <style>
      .cls-1 {
        fill: #588157;
      }

      .cls-2 {
        fill: #374e41;
      }

      .cls-3 {
        fill: #a5b38c;
      }
    </style>
  </defs>
  <path class="cls-2" d="M193.56,152.32l-.2-1.53-47.06,6.84-.17,1.59c7.1,3.14,9.93,6.9,10.02,17.83l.26,31.84-59.72,8.68c1.83-13.11,5.52-26.52,10.93-40.05,6.7-17.56,11.13-35.79,11.25-53.68.62-29.12-11.23-57.99-36.42-72.38-24.8-12.35,18.46,7.59,11.71,70.18l-56.17,8.16-.26-31.84c-.09-10.93,2.66-15.5,9.7-20.69l-.2-1.53L.17,82.56l-.17,1.59c7.1,3.14,9.93,6.9,10.02,17.83l.66,79.82c.09,10.93-2.66,15.5-9.7,20.69l.2,1.54,47.06-6.84.17-1.59c-7.1-3.14-9.93-6.9-10.02-17.83l-.26-31.64,53.18-7.73c-.3,1.32-.62,2.65-.97,4-2.76,11.17-7.02,22.9-11.31,33.89-4.66,12.78-7.88,26.05-8.95,39.31-3.58,38.65,14.01,78.33,50.54,92.68-17.75-21.9-25.74-47.2-25.25-74.17l61.18-8.89.26,31.64c.09,10.93-2.66,15.5-9.7,20.69l.2,1.54,47.06-6.84.17-1.59c-7.1-3.14-9.93-6.9-10.02-17.83l-.66-79.82c-.09-10.93,2.66-15.5,9.7-20.69Z"/>
  <path class="cls-2" d="M190.92,128.08l-21.99-51.28-23.73,3.45-.19.96c4.9,1.52,5.53,4.88,3.77,9.7l-16.99,45.77c-2.15,5.81-4.03,8.22-7,10.89v.84s23.54-3.42,23.54-3.42l.09-.85c-3.21-1.58-3.82-3.45-1.97-8.84l1.56-4.32,26.12-3.8,1.53,3.87c2.04,4.83,1.45,6.87-1.82,9.39l.11.82,24.03-3.49.09-.85c-3.01-1.8-5.02-3.65-7.16-8.83ZM152.31,118.7l8.48-24.24,8.87,21.71-17.35,2.52Z"/>
  <path class="cls-2" d="M191.96,85.18l17.89,50.85,12.46-1.81,14.82-42.76,15.39,38.37,11.87-1.72,16.91-55.35c2.23-7.4,4.21-9.83,7.78-12.59l-.11-.82-23.83,3.46-.09.85c2.71,1.75,3.43,4.44,1.88,10.06l-8.81,32.94-15.71-40.56-10.97,1.59-15.1,45.03-9.34-30.31c-1.85-5.79-.96-8.06,1.81-10.6l-.11-.82-24.43,3.55-.09.85c3.51,1.73,5.62,3.56,7.77,9.77Z"/>
  <path class="cls-2" d="M289.81,75.81c4.36-3.99,8.73-6.58,15.91-7.62l5.48-.8.35,42.23c.05,6.05-1.73,8.54-5.89,11.66l.11.82,26.72-3.88.09-.85c-4.11-1.92-5.92-3.89-5.97-9.93l-.35-42.23,5.38-.78c7.28-1.06,11.68.26,16,2.98l.99-.61-4.02-15.53-52.05,7.56-3.65,16.64.9.33Z"/>
  <path class="cls-2" d="M353.03,114.39l.11.82,25.03-3.64.09-.85c-3.61-1.71-5.12-3.73-5.17-9.59l-.13-16.09,26.42-3.84.13,16.09c.05,5.86-1.33,8.29-5,11.06l.11.82,25.03-3.64.09-.85c-3.61-1.71-5.12-3.73-5.17-9.59l-.36-42.79c-.05-5.86,1.43-8.31,5-11.06l-.11-.82-25.03,3.64-.09.85c3.71,1.7,5.12,3.73,5.17,9.59l.11,13.58-26.42,3.84-.11-13.58c-.05-5.86,1.43-8.31,5-11.06l-.11-.82-25.03,3.64-.09.85c3.71,1.7,5.12,3.73,5.17,9.59l.36,42.79c.05,5.86-1.33,8.29-5,11.06Z"/>
  <path class="cls-2" d="M461.92,100.52c20.54-2.98,36.37-20.09,36.21-38.97-.16-18.88-16.23-31.35-36.77-28.37-20.44,2.97-36.27,20.08-36.11,38.96.16,18.88,16.23,31.35,36.67,28.38ZM461.47,46.3c11.96-1.74,21.11,6.06,21.21,17.5.09,11.44-8.9,21.87-20.87,23.61s-21.01-6.07-21.11-17.51c-.09-11.44,8.9-21.87,20.77-23.6Z"/>
  <path class="cls-2" d="M569.09,82.99c-4.21-2.18-7.43-5.16-10.76-9.43l-9.89-12.62c8.85-4.27,14.47-12.25,14.4-21.18-.1-11.72-10.04-18.75-24.1-16.71l-35,5.09-.09.85c3.71,1.7,5.12,3.73,5.17,9.59l.36,42.79c.05,5.86-1.33,8.29-5,11.06l.11.82,24.73-3.59.09-.85c-3.41-1.74-4.82-3.77-4.87-9.63l-.11-13.21,9.07-1.32,8.38,11.45c3.43,4.72,5.46,7.77,7.38,10.66l20.04-2.91.09-.85ZM537.79,52.34l-13.76,2-.15-17.49,13.76-2c5.78-.84,9.9,2.29,9.94,7.31s-4.01,9.34-9.8,10.18Z"/>
  <path class="cls-2" d="M617.62,11.59l-.09.85c3.71,1.7,5.12,3.73,5.17,9.59l.24,28.93-31.74-35.53-18.94,2.75-.19.96c3.51,2,6.03,5.27,6.08,11.22l.34,40.93c.05,5.86-1.43,8.31-5,11.06l.11.82,24.23-3.52.09-.85c-3.71-1.7-5.12-3.73-5.17-9.59l-.26-31.16,32.96,37.58,11.96-1.74-.45-53.95c-.05-5.86,1.43-8.31,5-11.06l-.11-.82-24.23,3.52Z"/>
  <path class="cls-2" d="M702.96,47.06c-4.85,4.71-9.62,7.08-16.1,8.02l-18.35,2.67-.14-16.56,13.06-1.9c4.79-.7,7.29-.03,9.8,2.39l.9-.22-.16-18.88-.9.04c-2.47,3.15-4.95,4.63-9.74,5.33l-13.06,1.9-.12-13.95,16.25-2.36c6.58-.96,11.38-.07,16.2,3.14l.89-.5-4.13-16.16-49.35,7.17-.09.85c3.71,1.7,5.12,3.73,5.17,9.59l.36,42.79c.05,5.86-1.33,8.29-5,11.06l.11.82,51.45-7.48,3.85-17.51-.9-.24Z"/>
  <path class="cls-2" d="M237.37,217.15l-18.34,2.67-.14-16.56,13.06-1.9c4.79-.7,7.29-.03,9.8,2.39l.9-.22-.16-18.88-.9.04c-2.47,3.15-4.95,4.63-9.74,5.33l-13.06,1.9-.12-13.95,16.25-2.36c6.58-.96,11.38-.07,16.2,3.14l.89-.5-4.13-16.16-49.35,7.17-.09.85c3.71,1.7,5.12,3.73,5.17,9.59l.36,42.79c.05,5.86-1.33,8.29-5,11.06l.11.82,51.45-7.48,3.85-17.51-.9-.24c-4.85,4.71-9.62,7.08-16.11,8.02Z"/>
  <path class="cls-2" d="M313.94,205.83l-9.89-12.63c8.85-4.27,14.47-12.25,14.4-21.18-.1-11.72-10.04-18.75-24.1-16.71l-35,5.09-.09.85c3.71,1.7,5.12,3.73,5.17,9.59l.36,42.79c.05,5.86-1.33,8.29-5,11.06l.11.82,24.73-3.59.09-.85c-3.41-1.74-4.82-3.77-4.87-9.63l-.11-13.21,9.07-1.32,8.38,11.45c3.43,4.72,5.46,7.77,7.38,10.66l20.04-2.91.09-.85c-4.21-2.18-7.43-5.16-10.76-9.43ZM293.4,184.61l-13.76,2-.15-17.49,13.76-2c5.78-.84,9.9,2.29,9.94,7.31.04,4.93-4.01,9.34-9.8,10.18Z"/>
  <path class="cls-2" d="M354.09,147.48l-.11-.82-25.23,3.67-.09.85c3.81,1.68,5.32,3.7,5.37,9.56l.36,42.79c.05,5.86-1.43,8.31-5.2,11.09l.11.82,25.23-3.67.09-.85c-3.81-1.68-5.32-3.7-5.37-9.56l-.36-42.79c-.05-5.86,1.43-8.31,5.2-11.09Z"/>
  <path class="cls-2" d="M396.2,194.07l-.35-42.23,5.38-.78c7.28-1.06,11.68.26,16,2.98l.99-.61-4.02-15.53-52.05,7.56-3.65,16.64.9.34c4.36-3.99,8.73-6.58,15.91-7.62l5.48-.8.35,42.23c.05,6.05-1.73,8.54-5.89,11.66l.11.82,26.72-3.88.09-.85c-4.11-1.92-5.92-3.89-5.97-9.93Z"/>
  <path class="cls-2" d="M477.97,183.11l-21.99-51.28-23.73,3.45-.19.96c4.9,1.52,5.53,4.88,3.77,9.7l-16.99,45.77c-2.15,5.81-4.03,8.22-7,10.89v.84s23.54-3.42,23.54-3.42l.09-.85c-3.21-1.58-3.82-3.45-1.97-8.84l1.56-4.33,26.12-3.8,1.53,3.88c2.04,4.83,1.45,6.87-1.82,9.39l.11.82,24.03-3.49.09-.85c-3.01-1.8-5.02-3.65-7.16-8.83ZM439.36,173.73l8.48-24.23,8.87,21.71-17.35,2.52Z"/>
  <path class="cls-2" d="M547.94,145.85l-.11-.82-32.7,4.75-3.28,13.42.6.29c4.47-2.79,7.96-3.67,13.44-4.47l5.09-.74.11,13.67c-2.68,1.69-6.46,3.45-12.44,4.32-12.66,1.84-21.11-6.15-21.21-17.87s8.1-21.94,21.56-23.9c9.07-1.32,15.98.57,22.6,5l.99-.52-3.55-19.13-.6-.19c-4.46,3.44-8.08.43-20.05,2.17-21.14,3.07-36.57,19.38-36.41,38.82.16,19.53,15.13,31.42,36.97,28.25,11.86-1.72,21.3-6.82,27.55-12.29l.1-.57c-1.11-1.24-1.42-2.59-1.44-5.28l-.13-15.63c-.04-5.11.74-7,2.92-9.27Z"/>
  <path class="cls-2" d="M591.13,165.74l-18.34,2.67-.14-16.56,13.06-1.9c4.79-.7,7.29-.03,9.8,2.39l.9-.22-.16-18.88-.9.04c-2.47,3.15-4.95,4.63-9.74,5.33l-13.06,1.9-.12-13.95,16.25-2.36c6.58-.96,11.38-.07,16.2,3.14l.89-.5-4.13-16.16-49.35,7.17-.09.85c3.71,1.7,5.12,3.73,5.17,9.59l.36,42.79c.05,5.86-1.33,8.29-5,11.06l.11.82,51.45-7.48,3.85-17.51-.9-.24c-4.85,4.71-9.62,7.08-16.11,8.02Z"/>
  <path class="cls-1" d="M121.72,298.75c-20.51-10.18-34.28-29.29-40.26-50.84-6.07-21.98-3.39-46.78,4.62-69.95,5.95-15.93,10.89-32.47,12.16-48.74,2.53-27.08-5.5-54.42-25.4-71.62,23.74,11.04,36.19,36.05,37.89,61.62,1.23,18.82-2.8,38.37-9.62,57.13-17.35,45.62-12.79,91.54,20.62,122.39h0Z"/>
  <path class="cls-3" d="M123.64,287.21c-18.61-9.23-31.55-26.39-37.37-45.76-6.93-22.18-3.35-47.41,4.73-70.95,12.3-37.56,10.32-78.91-20.34-102.05,21.57,10.01,33.25,32.34,35.44,55.45,1.69,18.23-2.2,37.28-8.34,55.61-13.5,40.43-5.77,83.18,25.88,107.69h0Z"/>
</svg>